<?xml version="1.0" encoding="utf-8"?>
<!-- Generator: Adobe Illustrator 25.0.0, SVG Export Plug-In . SVG Version: 6.00 Build 0)  -->
<svg version="1.1" id="Layer_1" xmlns="http://www.w3.org/2000/svg" xmlns:xlink="http://www.w3.org/1999/xlink" x="0px" y="0px"
	 viewBox="0 0 595.3 841.9" style="enable-background:new 0 0 595.3 841.9;" xml:space="preserve">
<style type="text/css">
	.st0{fill:none;stroke:#CACACA;stroke-width:2;stroke-miterlimit:10;}
	.st1{fill:#CACACA;}
</style>
<g>
	
		<ellipse transform="matrix(0.9996 -2.768398e-02 2.768398e-02 0.9996 -10.1637 11.0474)" class="st0" cx="393.9" cy="372.6" rx="39.7" ry="39.7"/>
	<g>
		<path class="st1" d="M404,395c-4.3,1.9-8,2.6-13.2,2.6c-11.9,0-22.3-8.5-22.3-22.5c0-14.6,10.7-27.3,26.8-27.3
			c12.7,0,21.7,8.7,21.7,20.7c0,10.5-5.9,17.1-13.6,17.1c-3.4,0-5.8-1.8-6.2-5.5H397c-2.3,3.6-5.4,5.5-9.3,5.5c-4.6,0-8-3.5-8-9.4
			c0-8.8,6.5-16.7,16.8-16.7c3.1,0,6.7,0.8,8.5,1.7l-2.1,13.3c-0.7,4.2-0.2,6.2,1.8,6.2c3.1,0.1,6.9-3.8,6.9-12.1
			c0-9.4-6-16.5-17.1-16.5c-11,0-20.5,8.5-20.5,22.2c0,12,7.6,18.7,18.2,18.7c3.6,0,7.6-0.8,10.4-2.2L404,395z M397.6,365.5
			c-0.6-0.1-1.4-0.3-2.2-0.3c-4.7,0-8.4,4.6-8.4,10.2c0,2.7,1.2,4.4,3.6,4.4c2.6,0,5.4-3.4,6.1-7.5L397.6,365.5z"/>
	</g>
</g>
</svg>
