<?xml version="1.0" encoding="utf-8"?>
<!-- Generator: Adobe Illustrator 25.0.1, SVG Export Plug-In . SVG Version: 6.00 Build 0)  -->
<svg version="1.1" id="Capa_1" xmlns="http://www.w3.org/2000/svg" xmlns:xlink="http://www.w3.org/1999/xlink" x="0px" y="0px"
	 viewBox="0 0 595.3 841.9" style="enable-background:new 0 0 595.3 841.9;" xml:space="preserve">
<style type="text/css">
	.st0{fill:#FF6B00;}
</style>
<g>
	<g>
		<path class="st0" d="M383.6,421.5L383.6,421.5c0-7.7-0.5-15.2-1.3-22.5c-5.7-1.6-11.3-3.3-17.1-4.2c-12.1-1.8-24.5-0.1-34.7,7.3
			c-4.6,3.3-8.6,7.3-12.2,11.8c3.4,0.6,6.4,2.2,8.8,4.4c0.5,0.4,0.5,1.2,0,1.6l-3.6,3.6c-0.4,0.4-1.1,0.4-1.5,0
			c-1.8-1.6-4.2-2.6-6.8-2.6l0,0c-2.7,0-5.3,1.1-7.2,2.9c-1.9,1.9-3,4.5-3,7.2c0,2.8,1,5.4,2.9,7.3c1.9,1.9,4.4,2.9,7.2,2.9h0.1
			c1.9,0,3.8-0.5,5.4-1.5v-2.6c0,0,0-0.1-0.1-0.1h-3c-0.9,0-1.7-0.8-1.7-1.7v-3c0-0.9,0.8-1.7,1.7-1.7h8.3c0.9,0,1.7,0.8,1.7,1.7
			v10.8c0,0.3-0.1,0.6-0.3,0.8l0,0c-3.2,3-7.5,4.6-12,4.6h-0.1c-4.7,0-9.1-1.8-12.4-5.1c-3.3-3.3-5.1-7.8-5.1-12.6
			c0-4.7,1.9-9.1,5.2-12.4c3.3-3.3,7.7-5.1,12.4-5.1h0c0.5,0,1,0,1.5,0.1c0.6-1,1.1-2.2,1.5-3.5c0.4-1.3,0.6-2.6,0.6-3.8
			c0.5-7.5-3.4-14.1-10.8-16.5c-13.2-4.3-28.5,4.1-41.4,6.6c-13.3,2.6-26.9,0-37.5-8.9c-4.8-4-8.7-9-11.8-14.4
			c-3.5,15-5.8,31.3-5.8,48.3h0v0h0c0,21.4,3.6,41.7,8.7,59.7c0.5,1.6,1,3.3,1.6,4.9c2.9,8.2,11.4,13.2,20.5,13.2h110.3
			c9.1,0,17.7-4.9,20.5-13.2c0.5-1.6,1.1-3.2,1.6-4.9C380.1,463.2,383.6,442.9,383.6,421.5L383.6,421.5L383.6,421.5z M275.4,415.2
			c0-0.6,0.5-1.1,1.1-1.1h20.2c0.6,0,1.1,0.5,1.1,1.1v4.3c0,0.6-0.5,1.1-1.1,1.1h-13.8v7.4H294c0.6,0,1.1,0.5,1.1,1.1v4.3
			c0,0.6-0.5,1.1-1.1,1.1h-11.2v7.4h13.8c0.6,0,1.1,0.5,1.1,1.1v4.3c0,0.6-0.5,1.1-1.1,1.1h-20.2c-0.6,0-1.1-0.5-1.1-1.1V415.2z
			 M235.1,446.3l4.5-27l0.7-4.3c0.1-0.8,0.8-1.3,1.6-1.3l0.9,0c0.6,0,1.2,0.4,1.4,0.9l2.4,5.3l7,15.3l7-15.4l2.4-5.3
			c0.3-0.6,0.8-0.9,1.4-0.9l0.9,0c0.8,0,1.4,0.6,1.6,1.3l0.7,4.3l4.5,27c0.2,1-0.6,1.8-1.5,1.8l-4,0c-0.8,0-1.4-0.6-1.6-1.3
			l-2.7-16.1l-5.5,12.5l-2.2,4.9c-0.2,0.4-0.6,0.6-1,0.6h-0.4c-0.4,0-0.8-0.2-1-0.6l-2.2-4.9l-5.4-12.5l-2.7,16.1
			c-0.1,0.8-0.8,1.3-1.6,1.3l-4,0C235.7,448.1,235,447.3,235.1,446.3z M267.6,459.1C267.6,459.1,267.5,459.1,267.6,459.1
			C267.5,459.1,267.5,459.1,267.6,459.1c-0.1,3.1-0.1,6.2-0.1,9.3v14.5c0,1.2-0.5,1.7-1.7,1.7l-1.9,0c-0.5,0-1,0-1.6,0
			c-1,0-1.5-0.5-1.6-1.5c0-0.1,0-0.3,0-0.4v-23.3c0-0.1,0-0.2,0-0.2c-0.1,0-0.1,0-0.2,0l-9.9,0l0,0c-1.8,0-5.1,0-5.7,0
			c-0.3,0-0.6-0.1-0.9-0.1l-0.2,0c-0.4-0.1-0.7-0.1-1-0.1c-0.6,0-1.1,0.1-1.6,0.3c-0.9,0.4-1.4,1-1.6,1.8c-0.2,0.8,0.1,1.6,0.7,2.3
			c0.7,0.8,1.7,1.3,2.9,1.9c0.5,0.2,1.1,0.5,1.6,0.7c1.1,0.5,2.3,1,3.4,1.6c2.2,1.3,3.6,2.6,4.5,4.3c1.9,3.5,1,8.1-2.1,10.6
			c-2,1.6-4.5,2.5-7.5,2.5h0h0c-3.8-0.1-6.9-1.2-9.5-3.3c-1-0.8-1.1-1.4-0.4-2.5c0.2-0.4,0.4-0.7,0.6-1.1c0.2-0.3,0.4-0.6,0.5-0.9
			c0.3-0.6,0.8-1.1,1.5-1.1c0.4,0,0.8,0.2,1.3,0.5c1.4,0.9,2.5,1.5,3.7,1.9c0.9,0.3,1.6,0.5,2.3,0.5c0.6,0,1.1-0.1,1.6-0.3
			c0.9-0.4,1.6-1.1,1.7-2c0.2-0.9-0.1-1.8-0.8-2.5c-0.9-1-2.2-1.7-3.2-2.1c-0.4-0.2-0.8-0.3-1.1-0.5c-1.2-0.5-2.5-1.1-3.6-1.8
			c-2.2-1.4-3.5-2.9-4.3-4.8c-1.7-4.3,0.2-8.9,4.3-10.9c1.4-0.7,2.9-1,4.6-1.1l0,0c0,0,0,0,0,0l0,0l0.6,0c2.9,0,8.8,0,14.8,0
			c6.1,0,12.3,0,15.4,0l0.2,0c0.1,0,0.2,0,0.3,0c0.9,0.1,1.4,0.6,1.4,1.5c0,1.1,0,2.3,0,3.4c0,0.9-0.6,1.4-1.5,1.4l-0.8,0
			c-0.8,0-1.5,0-2.3,0C269.5,459.1,268.5,459.1,267.6,459.1z M300.8,480.3c-3.1,3.1-7.2,4.8-11.7,4.8H289c-4.4,0-8.6-1.7-11.6-4.8
			c-3.1-3.1-4.8-7.3-4.8-11.8c0-4.4,1.7-8.5,4.8-11.6c3.1-3.1,7.2-4.8,11.7-4.8l0,0c9.1,0,16.4,7.4,16.4,16.5
			C305.6,473.1,303.9,477.2,300.8,480.3z M313.8,468.5C313.8,468.5,313.8,468.5,313.8,468.5c0,0.1,0,0.1,0,0.2c0,2.5,1,4.9,2.8,6.7
			c1.8,1.8,4.2,2.7,6.7,2.8h0.1c0,0,0,0,0,0h0c0,0,0.1,0,0.1,0c2.5,0,4.8-1,6.5-2.6c0.4-0.2,0.9-0.1,1.2,0.2l3.4,3.4
			c0.4,0.4,0.4,1.1,0,1.5c-2.7,2.5-6.2,4.1-10.1,4.4c-0.1,0-0.2,0-0.3,0c-0.1,0-0.2,0-0.3,0c-0.2,0-0.3,0-0.5,0c-0.2,0-0.4,0-0.6,0
			c-0.1,0-0.1,0-0.2,0c-4.1-0.2-7.9-1.9-10.8-4.8c-2.9-2.9-4.6-6.7-4.8-10.8c0,0,0,0,0,0c0-0.2,0-0.4,0-0.6c0-0.1,0-0.2,0-0.3
			c0-0.1,0-0.2,0-0.3c0-0.2,0-0.4,0-0.6c0,0,0,0,0,0c0.2-4.1,1.9-7.9,4.8-10.8c2.9-2.9,6.7-4.6,10.8-4.8c0.1,0,0.1,0,0.2,0
			c0.2,0,0.4,0,0.6,0c0.2,0,0.3,0,0.5,0c0.1,0,0.2,0,0.3,0c0.1,0,0.2,0,0.3,0c3.9,0.3,7.4,1.9,10.1,4.4c0.4,0.4,0.4,1.1,0,1.5
			l-3.4,3.4c-0.3,0.3-0.8,0.4-1.2,0.2c-1.7-1.6-4-2.6-6.5-2.6c0,0-0.1,0-0.1,0l0,0c0,0,0,0,0,0h-0.1c-2.6,0-5,1-6.7,2.8
			c-1.8,1.8-2.7,4.1-2.8,6.7C313.8,468.3,313.8,468.4,313.8,468.5C313.8,468.4,313.8,468.4,313.8,468.5z M334.8,448.2h-3.9
			c-1.3,0-2.1-1.3-1.6-2.4l12.4-27.2l1.9-4.1c0.3-0.6,0.9-1,1.6-1c0.7,0,1.3,0.4,1.6,1l1.8,4.1l12.4,27.2c0.5,1.1-0.3,2.4-1.6,2.4
			h-3.9c-0.4,0-0.9-0.3-1.1-0.8l-9.2-20.9l-9.2,20.8C335.7,447.9,335.2,448.2,334.8,448.2z M360.7,484.5h-4.7c-0.5,0-1-0.2-1.4-0.6
			l-8.8-10.4l-1.7-2v11.6c0,0.8-0.7,1.5-1.5,1.5h-3.9c-0.8,0-1.5-0.7-1.5-1.5v-28.9c0-0.8,0.7-1.5,1.5-1.5h3.9
			c0.8,0,1.5,0.7,1.5,1.5v10.6l1.7-2l7.9-9.5c0.3-0.4,0.8-0.6,1.3-0.6h5.5c0.6,0,1.1,0.5,1.1,1.1c0,0.4-0.2,0.9-0.4,1.2l-11.3,12.8
			l12.4,14.6c0.1,0.1,0.2,0.3,0.2,0.5C362.4,483.8,361.7,484.5,360.7,484.5z M289.1,459L289.1,459c-2.6,0-5,1-6.8,2.8
			c-1.8,1.8-2.8,4.2-2.8,6.8c0,2.6,1,5.1,2.8,6.9c1.8,1.8,4.2,2.7,6.7,2.8h0.1c2.6,0,5-1,6.8-2.8c1.8-1.8,2.8-4.2,2.8-6.7v0
			C298.7,463.3,294.4,459,289.1,459z"/>
		<g>
			<g>
				<path class="st0" d="M258,375.4c10.9-3.2,20.9-9.2,31.9-11.6c10.9-2.4,22.7-0.4,29.8,9.3c6.9,9.3,6.5,20.7,2.4,30.9
					c9.6-13.8,23.7-24.9,38.1-27.4c6.1-1.1,12.2-0.7,18.3,0.2c-1.1-5.1-2.4-10.1-3.8-14.9c-0.5-1.6-1-3.3-1.6-4.9
					c-2.9-8.2-11.4-13.2-20.5-13.2H242.5c-9.1,0-17.7,4.9-20.5,13.2c-0.5,1.6-1.1,3.2-1.6,4.9c-0.6,2.1-1.2,4.3-1.8,6.5
					C229.7,377.2,244.2,379.4,258,375.4z"/>
			</g>
		</g>
	</g>
</g>
</svg>
