<?xml version="1.0" encoding="utf-8"?>
<!-- Generator: Adobe Illustrator 25.0.1, SVG Export Plug-In . SVG Version: 6.00 Build 0)  -->
<svg version="1.1" id="Capa_1" xmlns="http://www.w3.org/2000/svg" xmlns:xlink="http://www.w3.org/1999/xlink" x="0px" y="0px"
	 viewBox="0 0 187.9 173.6" style="enable-background:new 0 0 187.9 173.6;" xml:space="preserve">
<style type="text/css">
	.st0{fill:#FF6B00;}
</style>
<g>
	<g>
		<path class="st0" d="M180.9,86.6L180.9,86.6c0-7.7-0.5-15.2-1.3-22.5c-5.7-1.6-11.3-3.3-17.1-4.2c-12.1-1.8-24.5-0.1-34.7,7.3
			c-4.6,3.3-8.6,7.3-12.2,11.8c3.4,0.6,6.4,2.2,8.8,4.4c0.5,0.4,0.5,1.2,0,1.6l-3.6,3.6c-0.4,0.4-1.1,0.4-1.5,0
			c-1.8-1.6-4.2-2.6-6.8-2.6l0,0c-2.7,0-5.3,1.1-7.2,2.9c-1.9,1.9-3,4.5-3,7.2c0,2.8,1,5.4,2.9,7.3s4.4,2.9,7.2,2.9h0.1
			c1.9,0,3.8-0.5,5.4-1.5v-2.6c0,0,0-0.1-0.1-0.1h-3c-0.9,0-1.7-0.8-1.7-1.7v-3c0-0.9,0.8-1.7,1.7-1.7h8.3c0.9,0,1.7,0.8,1.7,1.7
			v10.8c0,0.3-0.1,0.6-0.3,0.8l0,0c-3.2,3-7.5,4.6-12,4.6h-0.1c-4.7,0-9.1-1.8-12.4-5.1c-3.3-3.3-5.1-7.8-5.1-12.6
			c0-4.7,1.9-9.1,5.2-12.4c3.3-3.3,7.7-5.1,12.4-5.1l0,0c0.5,0,1,0,1.5,0.1c0.6-1,1.1-2.2,1.5-3.5s0.6-2.6,0.6-3.8
			c0.5-7.5-3.4-14.1-10.8-16.5c-13.2-4.3-28.5,4.1-41.4,6.6c-13.3,2.6-26.9,0-37.5-8.9c-4.8-4-8.7-9-11.8-14.4
			c-3.5,15-5.8,31.3-5.8,48.3l0,0l0,0l0,0c0,21.4,3.6,41.7,8.7,59.7c0.5,1.6,1,3.3,1.6,4.9c2.9,8.2,11.4,13.2,20.5,13.2h110.3
			c9.1,0,17.7-4.9,20.5-13.2c0.5-1.6,1.1-3.2,1.6-4.9C177.4,128.3,180.9,108,180.9,86.6L180.9,86.6L180.9,86.6z M72.7,80.3
			c0-0.6,0.5-1.1,1.1-1.1H94c0.6,0,1.1,0.5,1.1,1.1v4.3c0,0.6-0.5,1.1-1.1,1.1H80.2v7.4h11.1c0.6,0,1.1,0.5,1.1,1.1v4.3
			c0,0.6-0.5,1.1-1.1,1.1H80.1v7.4h13.8c0.6,0,1.1,0.5,1.1,1.1v4.3c0,0.6-0.5,1.1-1.1,1.1H73.7c-0.6,0-1.1-0.5-1.1-1.1V80.3H72.7z
			 M32.4,111.4l4.5-27l0.7-4.3c0.1-0.8,0.8-1.3,1.6-1.3h0.9c0.6,0,1.2,0.4,1.4,0.9l2.4,5.3l7,15.3l7-15.4l2.4-5.3
			c0.3-0.6,0.8-0.9,1.4-0.9h0.9c0.8,0,1.4,0.6,1.6,1.3l0.7,4.3l4.5,27c0.2,1-0.6,1.8-1.5,1.8h-4c-0.8,0-1.4-0.6-1.6-1.3l-2.7-16.1
			l-5.5,12.5l-2.2,4.9c-0.2,0.4-0.6,0.6-1,0.6h-0.4c-0.4,0-0.8-0.2-1-0.6l-2.2-4.9l-5.4-12.5l-2.7,16.1c-0.1,0.8-0.8,1.3-1.6,1.3h-4
			C33,113.2,32.3,112.4,32.4,111.4z M64.9,124.2C64.9,124.2,64.8,124.2,64.9,124.2C64.8,124.2,64.8,124.2,64.9,124.2
			c-0.1,3.1-0.1,6.2-0.1,9.3V148c0,1.2-0.5,1.7-1.7,1.7h-1.9c-0.5,0-1,0-1.6,0c-1,0-1.5-0.5-1.6-1.5c0-0.1,0-0.3,0-0.4v-23.3
			c0-0.1,0-0.2,0-0.2c-0.1,0-0.1,0-0.2,0h-9.9l0,0c-1.8,0-5.1,0-5.7,0c-0.3,0-0.6-0.1-0.9-0.1h-0.2c-0.4-0.1-0.7-0.1-1-0.1
			c-0.6,0-1.1,0.1-1.6,0.3c-0.9,0.4-1.4,1-1.6,1.8c-0.2,0.8,0.1,1.6,0.7,2.3c0.7,0.8,1.7,1.3,2.9,1.9c0.5,0.2,1.1,0.5,1.6,0.7
			c1.1,0.5,2.3,1,3.4,1.6c2.2,1.3,3.6,2.6,4.5,4.3c1.9,3.5,1,8.1-2.1,10.6c-2,1.6-4.5,2.5-7.5,2.5l0,0l0,0c-3.8-0.1-6.9-1.2-9.5-3.3
			c-1-0.8-1.1-1.4-0.4-2.5c0.2-0.4,0.4-0.7,0.6-1.1c0.2-0.3,0.4-0.6,0.5-0.9c0.3-0.6,0.8-1.1,1.5-1.1c0.4,0,0.8,0.2,1.3,0.5
			c1.4,0.9,2.5,1.5,3.7,1.9c0.9,0.3,1.6,0.5,2.3,0.5c0.6,0,1.1-0.1,1.6-0.3c0.9-0.4,1.6-1.1,1.7-2c0.2-0.9-0.1-1.8-0.8-2.5
			c-0.9-1-2.2-1.7-3.2-2.1c-0.4-0.2-0.8-0.3-1.1-0.5c-1.2-0.5-2.5-1.1-3.6-1.8c-2.2-1.4-3.5-2.9-4.3-4.8c-1.7-4.3,0.2-8.9,4.3-10.9
			c1.4-0.7,2.9-1,4.6-1.1l0,0l0,0l0,0h0.6c2.9,0,8.8,0,14.8,0c6.1,0,12.3,0,15.4,0h0.2c0.1,0,0.2,0,0.3,0c0.9,0.1,1.4,0.6,1.4,1.5
			c0,1.1,0,2.3,0,3.4c0,0.9-0.6,1.4-1.5,1.4H70c-0.8,0-1.5,0-2.3,0C66.8,124.2,65.8,124.2,64.9,124.2z M98.1,145.4
			c-3.1,3.1-7.2,4.8-11.7,4.8h-0.1c-4.4,0-8.6-1.7-11.6-4.8c-3.1-3.1-4.8-7.3-4.8-11.8c0-4.4,1.7-8.5,4.8-11.6
			c3.1-3.1,7.2-4.8,11.7-4.8l0,0c9.1,0,16.4,7.4,16.4,16.5C102.9,138.2,101.2,142.3,98.1,145.4z M111.1,133.6L111.1,133.6
			c0,0.1,0,0.1,0,0.2c0,2.5,1,4.9,2.8,6.7c1.8,1.8,4.2,2.7,6.7,2.8h0.1l0,0l0,0h0.1c2.5,0,4.8-1,6.5-2.6c0.4-0.2,0.9-0.1,1.2,0.2
			l3.4,3.4c0.4,0.4,0.4,1.1,0,1.5c-2.7,2.5-6.2,4.1-10.1,4.4c-0.1,0-0.2,0-0.3,0c-0.1,0-0.2,0-0.3,0c-0.2,0-0.3,0-0.5,0
			s-0.4,0-0.6,0c-0.1,0-0.1,0-0.2,0c-4.1-0.2-7.9-1.9-10.8-4.8s-4.6-6.7-4.8-10.8l0,0c0-0.2,0-0.4,0-0.6c0-0.1,0-0.2,0-0.3
			c0-0.1,0-0.2,0-0.3c0-0.2,0-0.4,0-0.6l0,0c0.2-4.1,1.9-7.9,4.8-10.8s6.7-4.6,10.8-4.8c0.1,0,0.1,0,0.2,0c0.2,0,0.4,0,0.6,0
			s0.3,0,0.5,0c0.1,0,0.2,0,0.3,0c0.1,0,0.2,0,0.3,0c3.9,0.3,7.4,1.9,10.1,4.4c0.4,0.4,0.4,1.1,0,1.5l-3.4,3.4
			c-0.3,0.3-0.8,0.4-1.2,0.2c-1.7-1.6-4-2.6-6.5-2.6h-0.1l0,0l0,0h-0.1c-2.6,0-5,1-6.7,2.8C112.1,128.7,111.2,131,111.1,133.6
			C111.1,133.4,111.1,133.5,111.1,133.6C111.1,133.5,111.1,133.5,111.1,133.6z M132.1,113.3h-3.9c-1.3,0-2.1-1.3-1.6-2.4L139,83.7
			l1.9-4.1c0.3-0.6,0.9-1,1.6-1s1.3,0.4,1.6,1l1.8,4.1l12.4,27.2c0.5,1.1-0.3,2.4-1.6,2.4h-3.9c-0.4,0-0.9-0.3-1.1-0.8l-9.2-20.9
			l-9.2,20.8C133,113,132.5,113.3,132.1,113.3z M158,149.6h-4.7c-0.5,0-1-0.2-1.4-0.6l-8.8-10.4l-1.7-2v11.6c0,0.8-0.7,1.5-1.5,1.5
			H136c-0.8,0-1.5-0.7-1.5-1.5v-28.9c0-0.8,0.7-1.5,1.5-1.5h3.9c0.8,0,1.5,0.7,1.5,1.5v10.6l1.7-2l7.9-9.5c0.3-0.4,0.8-0.6,1.3-0.6
			h5.5c0.6,0,1.1,0.5,1.1,1.1c0,0.4-0.2,0.9-0.4,1.2l-11.3,12.8l12.4,14.6c0.1,0.1,0.2,0.3,0.2,0.5C159.7,148.9,159,149.6,158,149.6
			z M86.4,124.1L86.4,124.1c-2.6,0-5,1-6.8,2.8c-1.8,1.8-2.8,4.2-2.8,6.8c0,2.6,1,5.1,2.8,6.9s4.2,2.7,6.7,2.8h0.1
			c2.6,0,5-1,6.8-2.8s2.8-4.2,2.8-6.7l0,0C96,128.4,91.7,124.1,86.4,124.1z"/>
		<g>
			<g>
				<path class="st0" d="M55.3,40.5c10.9-3.2,20.9-9.2,31.9-11.6c10.9-2.4,22.7-0.4,29.8,9.3c6.9,9.3,6.5,20.7,2.4,30.9
					c9.6-13.8,23.7-24.9,38.1-27.4c6.1-1.1,12.2-0.7,18.3,0.2c-1.1-5.1-2.4-10.1-3.8-14.9c-0.5-1.6-1-3.3-1.6-4.9
					c-2.9-8.2-11.4-13.2-20.5-13.2H39.8c-9.1,0-17.7,4.9-20.5,13.2c-0.5,1.6-1.1,3.2-1.6,4.9c-0.6,2.1-1.2,4.3-1.8,6.5
					C27,42.3,41.5,44.5,55.3,40.5z"/>
			</g>
		</g>
	</g>
</g>
</svg>
