<?xml version="1.0" encoding="utf-8"?>
<!-- Generator: Adobe Illustrator 25.0.0, SVG Export Plug-In . SVG Version: 6.00 Build 0)  -->
<svg version="1.1" id="Layer_1" xmlns="http://www.w3.org/2000/svg" xmlns:xlink="http://www.w3.org/1999/xlink" x="0px" y="0px"
	 viewBox="0 0 85 85" style="enable-background:new 0 0 85 85;" xml:space="preserve">
<style type="text/css">
	.st0{fill:none;stroke:#CACACA;stroke-width:2;stroke-miterlimit:10;}
	.st1{fill:#CACACA;}
</style>
<path class="st0" d="M82.2,42.5c0,21.9-17.8,39.7-39.7,39.7S2.8,64.4,2.8,42.5S20.6,2.8,42.5,2.8S82.2,20.6,82.2,42.5z"/>
<g>
	<path class="st1" d="M52.5,20.2h-20c-6.8,0-12.3,5.6-12.3,12.3v20c0,6.8,5.6,12.3,12.3,12.3h20c6.8,0,12.3-5.6,12.3-12.3v-20
		C64.9,25.7,59.3,20.2,52.5,20.2z M60.9,52.5c0,4.6-3.8,8.3-8.3,8.3h-20c-4.6,0-8.3-3.8-8.3-8.3v-20c0-4.6,3.8-8.3,8.3-8.3h20
		c4.7,0,8.3,3.8,8.3,8.3V52.5L60.9,52.5z"/>
	<path class="st1" d="M42.5,31.1c-6.3,0-11.6,5.1-11.6,11.6c0,6.3,5.1,11.6,11.6,11.6c6.3,0,11.6-5.1,11.6-11.6
		C54,36.2,48.9,31.1,42.5,31.1z M42.5,50.1c-4.1,0-7.6-3.3-7.6-7.6s3.3-7.6,7.6-7.6c4.1,0,7.6,3.3,7.6,7.6S46.6,50.1,42.5,50.1z"/>
	<path class="st1" d="M54.5,27.6c-0.8,0-1.6,0.3-2,0.9c-0.6,0.6-0.9,1.3-0.9,2.1c0,0.8,0.3,1.6,0.9,2c0.6,0.6,1.3,0.9,2,0.9
		c0.8,0,1.6-0.3,2-0.9c0.6-0.6,0.9-1.3,0.9-2c0-0.8-0.3-1.6-0.9-2.1C56,28,55.3,27.6,54.5,27.6z"/>
</g>
</svg>
