<?xml version="1.0" encoding="utf-8"?>
<!-- Generator: Adobe Illustrator 25.0.0, SVG Export Plug-In . SVG Version: 6.00 Build 0)  -->
<svg version="1.1" id="Layer_1" xmlns="http://www.w3.org/2000/svg" xmlns:xlink="http://www.w3.org/1999/xlink" x="0px" y="0px"
	 viewBox="0 0 841.9 595.3" style="enable-background:new 0 0 841.9 595.3;" xml:space="preserve">
<style type="text/css">
	.st0{fill:none;stroke:#CACACA;stroke-width:2;stroke-miterlimit:10;}
	.st1{fill:#CACACA;}
</style>
<path class="st0" d="M564.5,436.4c0,19.7-16,35.7-35.7,35.7c-19.7,0-35.7-16-35.7-35.7c0-19.7,16-35.7,35.7-35.7
	C548.5,400.7,564.5,416.7,564.5,436.4z"/>
<g>
	<path class="st1" d="M537.8,416.3h-18c-6.1,0-11.1,5-11.1,11.1v18c0,6.1,5,11.1,11.1,11.1h18c6.1,0,11.1-5,11.1-11.1v-18
		C548.9,421.3,543.9,416.3,537.8,416.3z M545.3,445.4c0,4.1-3.4,7.5-7.5,7.5h-18c-4.1,0-7.5-3.4-7.5-7.5v-18c0-4.1,3.4-7.5,7.5-7.5
		h18c4.2,0,7.5,3.4,7.5,7.5L545.3,445.4L545.3,445.4z"/>
	<path class="st1" d="M528.8,426.1c-5.7,0-10.4,4.6-10.4,10.4c0,5.7,4.6,10.4,10.4,10.4c5.7,0,10.4-4.6,10.4-10.4
		C539.1,430.7,534.5,426.1,528.8,426.1z M528.8,443.2c-3.7,0-6.8-3-6.8-6.8s3-6.8,6.8-6.8c3.7,0,6.8,3,6.8,6.8
		S532.5,443.2,528.8,443.2z"/>
	<path class="st1" d="M539.6,423c-0.7,0-1.4,0.3-1.8,0.8c-0.5,0.5-0.8,1.2-0.8,1.9c0,0.7,0.3,1.4,0.8,1.8c0.5,0.5,1.2,0.8,1.8,0.8
		c0.7,0,1.4-0.3,1.8-0.8c0.5-0.5,0.8-1.2,0.8-1.8c0-0.7-0.3-1.4-0.8-1.9C540.9,423.3,540.3,423,539.6,423z"/>
</g>
</svg>
