<?xml version="1.0" encoding="utf-8"?>
<!-- Generator: Adobe Illustrator 25.0.0, SVG Export Plug-In . SVG Version: 6.00 Build 0)  -->
<svg version="1.1" id="Layer_1" xmlns="http://www.w3.org/2000/svg" xmlns:xlink="http://www.w3.org/1999/xlink" x="0px" y="0px"
	 viewBox="0 0 316 52" style="enable-background:new 0 0 316 52;" xml:space="preserve">
<style type="text/css">
	.st0{fill:#323232;}
</style>
<g>
	<path class="st0" d="M218.4,5.5L218.4,5.5c-5.4,0-10.3,2-14.1,5.7c-3.7,3.7-5.8,8.7-5.8,14c0,5.4,2,10.4,5.8,14.2
		c3.7,3.7,8.6,5.7,14,5.7h0.1c5.3,0,10.3-2,14-5.7s5.8-8.7,5.8-14C238.2,14.4,229.3,5.5,218.4,5.5 M226.5,33.5
		c-2.2,2.1-5.1,3.3-8.2,3.3l0,0c-3.1,0-6-1.2-8.1-3.3c-2.2-2.2-3.3-5.1-3.3-8.2s1.2-6,3.4-8.1c2.1-2.1,5-3.3,8.1-3.3l0,0
		c6.4,0,11.5,5.2,11.5,11.5v0.1C229.8,28.5,228.7,31.3,226.5,33.5"/>
	<path class="st0" d="M78.1,12V7.2c0-0.7-0.5-1.2-1.2-1.2H61.3h-7.2c-0.7,0-1.2,0.5-1.2,1.2v6v8.4v7.2v8.4v6c0,0.7,0.5,1.2,1.2,1.2
		h7.2h15.6c0.7,0,1.2-0.5,1.2-1.2v-4.8c0-0.7-0.5-1.2-1.2-1.2H61.3v-8.4h12.6c0.7,0,1.2-0.5,1.2-1.2v-4.8c0-0.7-0.5-1.2-1.2-1.2
		H61.3v-8.4h15.6C77.5,13.2,78.1,12.7,78.1,12"/>
	<path class="st0" d="M97.7,13.7L97.7,13.7c2.9,0,5.6,1.1,7.6,2.9c0.5,0.4,1.3,0.4,1.7-0.1l4.1-4.1c0.5-0.5,0.5-1.3,0-1.8
		c-3.5-3.3-8.2-5.2-13.3-5.3h-0.1c-5.3,0-10.3,2-14,5.7s-5.8,8.6-5.8,13.9c0,5.4,2,10.4,5.8,14.1c3.7,3.7,8.6,5.7,13.9,5.7h0.1
		c5.1,0,9.8-1.8,13.5-5.2l0,0c0.3-0.2,0.4-0.6,0.4-0.9V26.5c0-1.1-0.9-1.9-1.9-1.9h-9.4c-1.1,0-1.9,0.9-1.9,1.9v3.4
		c0,1,0.8,1.9,1.9,1.9h3.4c0,0,0.1,0,0.1,0.1v2.9c-1.8,1.1-3.9,1.7-6.1,1.7h-0.1c-3.1,0-6-1.2-8.1-3.3c-2.2-2.2-3.3-5.1-3.3-8.2
		s1.2-6,3.4-8.1C91.8,14.9,94.7,13.7,97.7,13.7"/>
	<path class="st0" d="M49.4,42.3l-5.1-30.4L43.5,7c-0.1-0.9-0.9-1.5-1.8-1.5h-1c-0.7,0-1.3,0.4-1.6,1l-2.7,6l-7.9,17.3l-7.9-17.3
		l-2.7-6c-0.3-0.6-0.9-1-1.6-1h-1c-0.9,0-1.6,0.6-1.8,1.5l-0.8,4.9L7.6,42.3c-0.2,1.1,0.6,2.1,1.7,2.1h4.5c0.9,0,1.6-0.6,1.8-1.5
		l3-18.1l6.1,14.1l2.5,5.5c0.2,0.4,0.6,0.7,1.1,0.7h0.4c0.5,0,0.9-0.3,1.1-0.7l2.5-5.5l6.1-14.1l3,18.1c0.1,0.9,0.9,1.5,1.8,1.5h4.5
		C48.8,44.3,49.6,43.4,49.4,42.3"/>
	<path class="st0" d="M135.3,10.9l-2.1-4.6c-0.3-0.7-1-1.1-1.8-1.1s-1.5,0.4-1.8,1.1l-2.1,4.6l-14,30.7c-0.6,1.3,0.4,2.8,1.8,2.8
		h4.3c0.5,0,1-0.3,1.4-0.9L131.3,20l10.4,23.5c0.3,0.5,0.8,0.9,1.3,0.9h4.4c1.4,0,2.4-1.5,1.8-2.8L135.3,10.9z"/>
	<path class="st0" d="M304.1,6.1h-6.6c-0.6,0-1.2,0.3-1.6,0.7l-9.5,11.4l-2,2.4v-4.8V7.9c0-1-0.8-1.8-1.8-1.8h-4.7
		c-1,0-1.8,0.8-1.8,1.8v34.7c0,1,0.8,1.8,1.8,1.8h4.7c1,0,1.8-0.8,1.8-1.8v-9.1v-4.8l2,2.4l10.5,12.5c0.4,0.5,1,0.8,1.6,0.8h5.7
		c1.2,0,2.1-0.9,2.1-2.1c0-0.2-0.1-0.4-0.2-0.6l-14.8-17.5l13.5-15.4c0.3-0.4,0.5-0.9,0.5-1.4C305.4,6.7,304.8,6.1,304.1,6.1"/>
	<path class="st0" d="M201.4,8.1c0-1-0.6-1.6-1.7-1.7c-0.1,0-0.2,0-0.4,0H199c-3.7,0-11.1,0-18.5,0c-7.1,0-14.2,0-17.8,0H162l0,0
		c-1.9,0.1-3.8,0.5-5.5,1.3c-5,2.4-7.2,8-5.2,13.1c0.9,2.2,2.5,4.1,5.1,5.7c1.4,0.9,2.9,1.5,4.3,2.2c0.5,0.2,0.9,0.4,1.4,0.6
		c1.3,0.6,2.7,1.3,3.9,2.6c0.8,0.9,1.2,2,0.9,3.1c-0.2,1-1,1.9-2.1,2.4c-0.6,0.3-1.2,0.4-1.9,0.4c-0.8,0-1.7-0.2-2.8-0.6
		c-1.4-0.5-2.7-1.2-4.4-2.3c-0.6-0.4-1.1-0.6-1.5-0.6c-0.9,0-1.4,0.7-1.8,1.4c-0.2,0.4-0.4,0.7-0.6,1.1c-0.3,0.4-0.5,0.9-0.8,1.3
		c-0.8,1.4-0.7,2,0.5,3c3.1,2.5,6.8,3.8,11.4,3.9l0,0l0,0c3.6-0.1,6.6-1.1,9-3c3.8-3.1,4.9-8.5,2.6-12.8c-1.1-2-2.8-3.6-5.4-5.2
		c-1.3-0.8-2.7-1.4-4.1-2c-0.6-0.3-1.3-0.5-1.9-0.8c-1.4-0.7-2.6-1.3-3.5-2.3c-0.8-0.8-1.1-1.8-0.9-2.8s0.9-1.7,1.9-2.2
		c0.6-0.3,1.2-0.4,1.9-0.4c0.4,0,0.8,0,1.2,0.1l0.3,0.1c0.3,0.1,0.7,0.1,1.1,0.1c0.7,0,4.7,0,6.8,0h11.8c0.1,0,0.2,0,0.3,0
		c0,0.1,0,0.2,0,0.3v28c0,0.2,0,0.3,0,0.5c0.1,1.2,0.7,1.8,1.9,1.8c0.6,0,1.2,0,1.9,0h2.3c1.4,0,2-0.6,2-2V25c0-3.7,0-7.3,0-11v-0.1
		h0.1c1.1,0,2.3,0,3.4,0c0.9,0,1.8,0,2.7,0h0.9c1.2,0,1.8-0.6,1.8-1.7C201.4,10.8,201.4,9.4,201.4,8.1"/>
	<path class="st0" d="M268.9,33.8c-0.4-0.4-0.9-0.5-1.4-0.3c-2.1,2-4.8,3.1-7.8,3.1c-0.1,0-0.1,0-0.2,0l0,0l0,0h-0.1
		c-3.1,0-6-1.2-8.1-3.3s-3.3-4.9-3.3-8v-0.1l0,0l0,0v-0.1c0-3.1,1.2-5.9,3.3-8s5-3.3,8.1-3.3h0.1l0,0l0,0c0.1,0,0.1,0,0.2,0
		c3,0,5.7,1.1,7.8,3.1c0.5,0.2,1,0.1,1.4-0.3l4.1-4.1c0.5-0.5,0.5-1.3,0-1.8c-3.2-3-7.4-4.9-12.1-5.2c-0.1,0-0.2,0-0.4,0
		c-0.1,0-0.3,0-0.4,0c-0.2,0-0.4,0-0.6,0s-0.5,0-0.7,0c-0.1,0-0.2,0-0.3,0c-4.9,0.2-9.5,2.3-13,5.7c-3.5,3.5-5.5,8-5.8,12.9l0,0
		c0,0.2,0,0.5,0,0.7c0,0.1,0,0.3,0,0.4s0,0.3,0,0.4c0,0.2,0,0.5,0,0.7l0,0c0.3,4.9,2.3,9.5,5.8,12.9c3.5,3.5,8.1,5.5,13,5.7
		c0.1,0,0.2,0,0.3,0c0.2,0,0.5,0,0.7,0s0.4,0,0.6,0c0.1,0,0.3,0,0.4,0s0.2,0,0.4,0c4.6-0.3,8.9-2.3,12.1-5.2c0.5-0.5,0.5-1.3,0-1.8
		L268.9,33.8z"/>
</g>
</svg>
