<?xml version="1.0" encoding="utf-8"?>
<!-- Generator: Adobe Illustrator 25.0.0, SVG Export Plug-In . SVG Version: 6.00 Build 0)  -->
<svg version="1.1" id="Capa_1" xmlns="http://www.w3.org/2000/svg" xmlns:xlink="http://www.w3.org/1999/xlink" x="0px" y="0px"
	 viewBox="0 0 32 32" style="enable-background:new 0 0 32 32;" xml:space="preserve">
<style type="text/css">
	.st0{fill:#FFFFFF;}
</style>
<g id="Layer_2">
	<path class="st0" d="M1,16C1,7.7,7.7,1,16,1s15,6.7,15,15s-6.7,15-15,15S1,24.3,1,16z M29,16c0-7.2-5.8-13-13-13S3,8.8,3,16
		s5.8,13,13,13S29,23.2,29,16z"/>
	<path class="st0" d="M12.1,21.6l5.6-5.6l-5.6-5.6c-0.4-0.4-0.4-1,0-1.4l0,0c0.4-0.4,1-0.4,1.4,0l6.4,6.4c0.4,0.4,0.4,0.9,0,1.3
		L13.5,23c-0.4,0.4-1,0.4-1.4,0l0,0C11.7,22.6,11.7,22,12.1,21.6z"/>
</g>
</svg>
