<?xml version="1.0" encoding="utf-8"?>
<!-- Generator: Adobe Illustrator 25.0.0, SVG Export Plug-In . SVG Version: 6.00 Build 0)  -->
<svg version="1.1" id="Layer_1" xmlns="http://www.w3.org/2000/svg" xmlns:xlink="http://www.w3.org/1999/xlink" x="0px" y="0px"
	 viewBox="0 0 85 85" style="enable-background:new 0 0 85 85;" xml:space="preserve">
<style type="text/css">
	.st0{fill:none;stroke:#CACACA;stroke-width:2;stroke-miterlimit:10;}
	.st1{fill:#CACACA;}
</style>
<g>
	<path class="st0" d="M82.2,42.5c0,21.9-17.8,39.7-39.7,39.7c-21.9,0-39.7-17.8-39.7-39.7c0-21.9,17.8-39.7,39.7-39.7
		C64.4,2.8,82.2,20.6,82.2,42.5z"/>
	<g>
		<path class="st1" d="M43.2,54.2c0.8,1.3,2.1,1.3,4,0c1.3,3.2,7.1,14,7.1,14s-3.8,1.5-9.1-2.2c-3.5-2.4-10.4-9.8-14.5-20
			c-2.2-5.6-2.9-11.7-2.9-18.6c0.1-6.1,2.7-7.8,5.4-8.6L38,34c0,0-3.4,1.1-1.9,5.4C35.9,39.3,37.1,47,43.2,54.2z"/>
		<path class="st1" d="M35.1,18.2c0,0,4.1-1.5,6.2,2.7s3.7,10.6-1.4,12.6C38.5,29.6,35.1,18.2,35.1,18.2z"/>
		<path class="st1" d="M49.4,53.4l7.3,13.8c0,0,4.2-3.1,2.5-6.2s-3.7-7-3.7-7S53.6,51,49.4,53.4z"/>
	</g>
</g>
</svg>
