<?xml version="1.0" encoding="utf-8"?>
<!-- Generator: Adobe Illustrator 25.0.0, SVG Export Plug-In . SVG Version: 6.00 Build 0)  -->
<svg version="1.1" id="Layer_1" xmlns="http://www.w3.org/2000/svg" xmlns:xlink="http://www.w3.org/1999/xlink" x="0px" y="0px"
	 viewBox="0 0 595.3 841.9" style="enable-background:new 0 0 595.3 841.9;" xml:space="preserve">
<style type="text/css">
	.st0{fill:none;stroke:#CACACA;stroke-width:2;stroke-miterlimit:10;}
	.st1{fill:#CACACA;}
</style>
<g>
	<path class="st0" d="M433.6,468.2c0,21.9-17.8,39.7-39.7,39.7c-21.9,0-39.7-17.8-39.7-39.7c0-21.9,17.8-39.7,39.7-39.7
		C415.8,428.5,433.6,446.3,433.6,468.2z"/>
	<g>
		<path class="st1" d="M394.6,479.9c0.8,1.3,2.1,1.3,4,0c1.3,3.2,7.1,14,7.1,14s-3.8,1.5-9.1-2.2c-3.5-2.4-10.4-9.8-14.5-20
			c-2.2-5.6-2.9-11.7-2.9-18.6c0.1-6.1,2.7-7.8,5.4-8.6l4.8,15.2c0,0-3.4,1.1-1.9,5.4C387.3,465,388.5,472.7,394.6,479.9z"/>
		<path class="st1" d="M386.5,443.9c0,0,4.1-1.5,6.2,2.7c2.1,4.2,3.7,10.6-1.4,12.6C389.9,455.3,386.5,443.9,386.5,443.9z"/>
		<path class="st1" d="M400.8,479.1l7.3,13.8c0,0,4.2-3.1,2.5-6.2c-1.7-3.1-3.7-7-3.7-7S405,476.7,400.8,479.1z"/>
	</g>
</g>
</svg>
