<?xml version="1.0" encoding="utf-8"?>
<!-- Generator: Adobe Illustrator 25.0.0, SVG Export Plug-In . SVG Version: 6.00 Build 0)  -->
<svg version="1.1" id="Layer_1" xmlns="http://www.w3.org/2000/svg" xmlns:xlink="http://www.w3.org/1999/xlink" x="0px" y="0px"
	 viewBox="0 0 85 85" style="enable-background:new 0 0 85 85;" xml:space="preserve">
<style type="text/css">
	.st0{fill:none;stroke:#CACACA;stroke-width:2;stroke-miterlimit:10;}
	.st1{fill:#CACACA;}
</style>
<g>
	<path class="st0" d="M82.2,42.5c0,21.9-17.8,39.7-39.7,39.7S2.8,64.4,2.8,42.5S20.6,2.8,42.5,2.8C64.5,2.8,82.2,20.6,82.2,42.5z"/>
	<g>
		<path class="st1" d="M65.6,41.6c0,12.2-10,22.2-22.3,22.2c-3.9,0-7.6-1-10.8-2.8l-12.3,4l4-11.9c-2-3.3-3.2-7.2-3.2-11.4
			c0-12.2,10-22.2,22.3-22.2C55.6,19.4,65.6,29.4,65.6,41.6z M43.3,23C33,23,24.5,31.3,24.5,41.6c0,4.1,1.3,7.9,3.6,10.9l-2.3,6.9
			l7.2-2.3c3,2,6.6,3.1,10.3,3.1c10.3,0,18.8-8.3,18.8-18.7C62.1,31.3,53.6,23,43.3,23z M54.6,46.7c-0.1-0.2-0.6-0.3-1-0.7
			c-0.6-0.2-3.2-1.6-3.8-1.8s-0.9-0.2-1.2,0.2c-0.3,0.6-1.4,1.8-1.8,2.1c-0.3,0.3-0.7,0.4-1.2,0.1c-0.6-0.2-2.3-0.9-4.4-2.7
			c-1.7-1.4-2.8-3.2-3-3.8c-0.3-0.6,0-0.9,0.2-1.1c0.2-0.2,0.6-0.7,0.8-1s0.3-0.6,0.6-0.9c0.2-0.3,0.1-0.7,0-1c-0.1-0.2-1.2-3-1.7-4
			c-0.4-1.1-0.9-0.9-1.2-0.9s-0.7,0-1,0s-1,0.1-1.4,0.7c-0.4,0.6-1.9,1.9-1.9,4.6s2,5.2,2.2,5.7c0.2,0.3,3.8,6,9.3,8.2
			s5.6,1.4,6.6,1.3c1-0.1,3.2-1.3,3.7-2.6C54.7,48.1,54.7,47,54.6,46.7z"/>
	</g>
</g>
</svg>
